<?xml version="1.0" encoding="UTF-8" standalone="no"?>
<svg
   xmlns:dc="http://purl.org/dc/elements/1.1/"
   xmlns:cc="http://creativecommons.org/ns#"
   xmlns:rdf="http://www.w3.org/1999/02/22-rdf-syntax-ns#"
   xmlns:svg="http://www.w3.org/2000/svg"
   xmlns="http://www.w3.org/2000/svg"
   viewBox="0 0 112.4625 112.4625"
   height="112.4625"
   width="112.4625"
   xml:space="preserve"
   version="1.1"
   id="svg2"><metadata
     id="metadata8"><rdf:RDF><cc:Work
         rdf:about=""><dc:format>image/svg+xml</dc:format><dc:type
           rdf:resource="http://purl.org/dc/dcmitype/StillImage" /><dc:title></dc:title></cc:Work></rdf:RDF></metadata><defs
     id="defs6" /><g
     transform="matrix(1.25,0,0,-1.25,0,112.4625)"
     id="g10"><g
       transform="scale(0.1,0.1)"
       id="g12"><path
         id="path14"
         style="fill:#231f20;fill-opacity:1;fill-rule:nonzero;stroke:none"
         d="m 449.836,0 c 248.422,0 449.848,201.406 449.848,449.848 0,248.425 -201.426,449.816 -449.848,449.816 C 201.395,899.664 0,698.273 0,449.848 0,201.406 201.395,0 449.836,0" /><path
         id="path16"
         style="fill:#ffffff;fill-opacity:1;fill-rule:nonzero;stroke:none"
         d="m 712.438,327.5 0,317.594 c 0,2.636 -1.075,5.215 -2.911,7.07 l -63.535,63.508 c -0.234,0.242 -0.469,0.476 -0.762,0.68 -0.039,0.058 -0.117,0.101 -0.175,0.136 -0.196,0.153 -0.391,0.313 -0.606,0.461 -0.078,0.051 -0.176,0.09 -0.273,0.145 -0.176,0.133 -0.371,0.254 -0.567,0.344 -0.097,0.058 -0.195,0.105 -0.273,0.14 -0.215,0.113 -0.391,0.203 -0.625,0.277 -0.078,0.04 -0.156,0.059 -0.234,0.094 -0.235,0.082 -0.469,0.18 -0.684,0.235 -0.059,0.015 -0.137,0.035 -0.195,0.054 -0.235,0.078 -0.508,0.137 -0.762,0.196 -0.039,0 -0.098,0.019 -0.156,0.019 -0.567,0.09 -1.153,0.164 -1.778,0.164 l -27.187,0 c -3.809,0 -7.285,-2.164 -8.945,-5.57 L 453.652,412.637 304.559,713.047 c -1.688,3.406 -5.153,5.57 -8.965,5.57 l -90.711,0 c -2.637,0 -5.215,-1.054 -7.07,-2.922 -1.875,-1.867 -2.938,-4.449 -2.938,-7.078 l 0,-486.976 c 0,-0.352 0.016,-0.664 0.039,-1.016 0.254,-2.363 1.297,-4.473 2.899,-6.055 l 0.019,-0.019 c 0.195,-0.215 0.449,-0.449 0.703,-0.664 0.02,0 0.02,-0.02 0.039,-0.02 1.231,-0.996 2.715,-1.719 4.356,-2.051 l 0.019,0 c 0.293,-0.058 0.606,-0.097 0.918,-0.117 0.332,-0.039 0.676,-0.078 0.996,-0.078 l 63.524,0 c 0.343,0 0.687,0.039 1.008,0.078 0.304,0.02 0.585,0.059 0.851,0.117 0.047,0 0.086,0 0.106,0 1.613,0.332 3.086,1.055 4.336,2.051 0.019,0 0.039,0.02 0.046,0.02 0.168,0.156 0.364,0.332 0.539,0.508 0.051,0.058 0.137,0.117 0.196,0.175 0.031,0.02 0.07,0.078 0.109,0.118 1.746,1.816 2.809,4.238 2.809,6.953 l 0,371.168 123.371,-248.571 c 1.699,-3.398 5.168,-5.566 8.972,-5.566 l 85.868,0 c 3.789,0 7.246,2.168 8.925,5.547 l 123.418,247.769 0,-370.347 c 0,-0.352 0,-0.664 0.02,-1.016 0.254,-2.363 1.309,-4.473 2.91,-6.055 0,-0.019 0.02,-0.019 0.039,-0.039 0.195,-0.215 0.43,-0.429 0.664,-0.644 0.039,0 0.039,-0.02 0.039,-0.02 1.25,-0.996 2.735,-1.719 4.356,-2.051 0,0 0.019,0 0.039,0 0.293,-0.058 0.605,-0.097 0.898,-0.117 0.352,-0.039 0.684,-0.078 0.996,-0.078 l 63.536,0 c 0.351,0 0.664,0.039 0.996,0.078 4.726,0.449 8.496,4.219 8.945,8.926 0.039,0.352 0.059,0.664 0.059,1.016 l 0,105.859" /></g></g></svg>